<svg xmlns="http://www.w3.org/2000/svg" xmlns:xlink="http://www.w3.org/1999/xlink" viewBox="0 0 1000 624.99" preserveAspectRatio="xMaxYMax slice" xmlns:v="https://vecta.io/nano"><style><![CDATA[.D{fill:#fafafa}.E{fill:#1c77fd}.F{fill:#8fbbfb}]]></style><g transform="scale(1.490475118753605)"><path d="M0 0h670.933v419.333H0z" class="D"/><path fill="#1f79fd" d="M0 0h83.87v83.87H0z"/><path fill="#eeabb1" d="M0 0l83.87 83.87H0z"/><path d="M83.867 0h83.867v83.867H83.867z" class="D"/><use xlink:href="#H" fill="#e67883"/><path fill="#97bffb" d="M83.87 0h41.93v41.93z"/><use xlink:href="#A" fill="#f2c4c8"/><use xlink:href="#A" fill="#b0cefb"/><use xlink:href="#H" y="41.93" fill="#c4dafb"/><path d="M83.87 41.93a41.93 41.93 0 0 1 41.93 41.93H83.87" class="E"/><use xlink:href="#A" y="41.93" fill="#83b4fc"/><use xlink:href="#A" y="41.93" fill="#eeacb3"/><path d="M167.733 0H251.6v83.867h-83.867z" class="D"/><use xlink:href="#B" fill="#e25f6b"/><use xlink:href="#B" fill="#e67781"/><use xlink:href="#B" x="41.94" class="F"/><path d="M230.635 0H251.6l-41.93 41.93V20.965L230.635 0zM251.6 20.965V41.93h-20.965L251.6 20.965z" fill="#f1bcc1"/><use xlink:href="#B" y="41.93" fill="#f8ebec"/><use xlink:href="#I" fill="#62a0fc"/><use xlink:href="#B" x="41.94" y="41.93" fill="#eaf1fa"/><path fill="#75abfc" d="M209.67 41.93l41.93 41.93h-41.93z"/><path fill="#dc3545" d="M251.6 0h83.87v83.87H251.6z"/><path d="M251.6 0a83.87 83.87 0 0 1 83.87 83.87L251.6 0a83.87 83.87 0 0 0 83.87 83.87" fill="#e6747f"/><use xlink:href="#C" fill="#a7c9fb"/><use xlink:href="#C" fill="#c1d8fb"/><use xlink:href="#C" x="83.86" fill="#efb0b6"/><path d="M419.33 83.87A83.87 83.87 0 0 0 503.2 0h-83.87" fill="#de4251"/><use xlink:href="#J" fill="#f2c6ca"/><path d="M545.135 0h41.935L503.2 83.87V41.935L545.135 0zm41.935 41.935V83.87h-41.935l41.935-41.935z" fill="#d5e4fa"/><use xlink:href="#C" x="251.6" fill="#d8e6fa"/><use xlink:href="#C" x="251.6" fill="#e25d6a"/><path d="M0 83.867h83.867v83.867H0z" class="D"/><path fill="#e15361" d="M0 83.87h41.93v41.93H0z"/><use xlink:href="#K" fill="#e3edfa"/><use xlink:href="#D" fill="#f3cdd1"/><use xlink:href="#D" fill="#b6d2fb"/><path fill="#1e78fd" d="M0 125.8h41.93v41.93H0z"/><path fill="#dc3545" d="M0 125.8h41.93v41.93H0z"/><use xlink:href="#D" y="41.93" fill="#f1bec3"/><path fill="#dd3e4d" d="M83.86 125.8v41.93H41.93z"/><path fill="#3d8bfc" d="M83.87 83.87h83.87v83.87H83.87z"/><path fill="#f0babf" d="M167.74 83.87v83.87H83.87z"/><use xlink:href="#C" x="-167.74" y="83.87" fill="#df4b5a"/><path fill="#2a7ffd" d="M167.73 83.87h83.87v83.87z"/><path fill="#f9f4f5" d="M251.6 83.87h83.87v83.87H251.6z"/><path fill="#e5737e" d="M335.47 83.87v83.87H251.6z"/><path d="M335.466 83.867h83.867v83.867h-83.867z" class="D"/><use xlink:href="#B" x="167.74" y="83.87" fill="#e36470"/><path fill="#71a9fc" d="M377.4 83.87v41.93h-41.93z"/><use xlink:href="#L" fill="#e3626e"/><use xlink:href="#L" fill="#a1c5fb"/><use xlink:href="#B" x="167.74" y="125.8" fill="#f7e4e6"/><path d="M335.47 167.73a41.93 41.93 0 0 0 41.93-41.93h-41.93" fill="#83b4fc"/><use xlink:href="#L" y="41.93" fill="#f8ebed"/><g fill="#287efd"><use xlink:href="#E"/><use xlink:href="#M"/></g><path d="M419.333 83.867H503.2v83.867h-83.867z" class="D"/><use xlink:href="#B" x="251.6" y="83.87" fill="#dc3646"/><use xlink:href="#B" x="251.6" y="83.87" fill="#2c80fd"/><use xlink:href="#B" x="293.54" y="83.87" fill="#99c1fb"/><path fill="#dd3a4a" d="M461.27 83.87h41.93v41.93z"/><use xlink:href="#B" x="251.6" y="125.8" fill="#3686fc"/><path fill="#1b76fd" d="M419.33 125.8h41.93v41.93z"/><use xlink:href="#B" x="293.54" y="125.8" class="E"/><use xlink:href="#F" fill="#f2c7cb"/><use xlink:href="#J" y="83.87" fill="#f3cfd2"/><path fill="#458ffc" d="M503.2 83.87h83.87v83.87z"/><use xlink:href="#C" x="251.6" y="83.87" fill="#2b80fd"/><path d="M587.07 167.74a83.87 83.87 0 0 1 83.87-83.87l-83.87 83.87a83.87 83.87 0 0 0 83.87-83.87" fill="#f6dee0"/><path fill="#dde9fa" d="M0 167.73h83.87v83.87H0z"/><path fill="#3183fd" d="M0 167.73h83.87v83.87z"/><path d="M83.867 167.733h83.867V251.6H83.867z" class="D"/><use xlink:href="#H" y="167.73" fill="#f7e5e6"/><path fill="#c9ddfb" d="M83.87 167.73h41.93v41.93z"/><use xlink:href="#A" y="167.73" fill="#a3c6fb"/><path d="M125.8 167.73a41.93 41.93 0 0 1 41.93 41.93H125.8" fill="#8ebafb"/><use xlink:href="#H" y="209.67" fill="#8cb9fb"/><path fill="#f7e6e8" d="M83.87 209.67h41.93L83.87 251.6z"/><use xlink:href="#A" y="209.67" fill="#6ca6fc"/><use xlink:href="#K" x="125.8" y="125.8" fill="#f6e1e3"/><path d="M167.733 167.733H251.6V251.6h-83.867z" class="D"/><use xlink:href="#B" y="167.73" fill="#9fc4fb"/><use xlink:href="#K" x="167.73" y="83.86" fill="#82b3fc"/><use xlink:href="#B" x="41.94" y="167.73" fill="#3c8afc"/><path d="M230.635 167.73H251.6l-41.93 41.93v-20.965l20.965-20.965zm20.965 20.965v20.965h-20.965l20.965-20.965z" fill="#bad4fb"/><use xlink:href="#B" y="209.67" fill="#b1cffb"/><use xlink:href="#B" y="209.67" fill="#4992fc"/><use xlink:href="#B" x="41.94" y="209.67" fill="#acccfb"/><path fill="#a9cafb" d="M209.67 209.67h41.93l-41.93 41.93z"/><path fill="#2d81fd" d="M251.6 167.73h83.87v83.87H251.6z"/><path d="M251.6 251.6a83.87 83.87 0 0 1 83.87-83.87L251.6 251.6a83.87 83.87 0 0 0 83.87-83.87" fill="#eeadb3"/><use xlink:href="#C" y="167.73" fill="#78adfc"/><path fill="#a9cafb" d="M335.47 167.73l83.87 83.87h-83.87z"/><path d="M419.333 167.733H503.2V251.6h-83.867z" class="D"/><use xlink:href="#B" x="251.6" y="167.73" fill="#e8818b"/><g fill="#1774fd"><use xlink:href="#E" x="41.93" y="41.93"/><use xlink:href="#M" x="41.93" y="41.93"/></g><use xlink:href="#B" x="293.54" y="167.73" class="E"/><use xlink:href="#B" x="293.54" y="167.73" fill="#bed7fb"/><use xlink:href="#B" x="251.6" y="209.67" fill="#df4857"/><g fill="#cee0fb"><use xlink:href="#E" x="41.93" y="83.87"/><path d="M461.26 230.635V251.6h-20.965l20.965-20.965z"/></g><use xlink:href="#B" x="293.54" y="209.67" fill="#e9f0fa"/><path fill="#e56d79" d="M461.27 209.67l41.93 41.93h-41.93z"/><use xlink:href="#J" y="167.73" fill="#f8edee"/><path fill="#e8effa" d="M587.07 167.73v83.87H503.2z"/><use xlink:href="#C" x="251.6" y="167.73" fill="#f6dfe1"/><path d="M629.005 167.73h41.935l-83.87 83.87v-41.935l41.935-41.935zm41.935 41.935V251.6h-41.935l41.935-41.935z" fill="#efb0b6"/><path d="M0 251.6h83.867v83.867H0z" class="D"/><path fill="#5c9dfc" d="M0 251.6h41.93v41.93H0z"/><path d="M20.965 251.6H41.93L0 293.53v-20.965L20.965 251.6zm20.965 20.965v20.965H20.965l20.965-20.965z" fill="#e25a67"/><use xlink:href="#D" y="167.73" fill="#e8838d"/><use xlink:href="#F" x="-419.34" y="125.8" fill="#df4755"/><path fill="#5699fc" d="M0 293.53h41.93v41.93H0z"/><path fill="#5e9efc" d="M0 293.53h41.93L0 335.46z"/><use xlink:href="#D" y="209.66" fill="#eda5ac"/><path fill="#eef3fa" d="M83.86 293.53v41.93H41.93z"/><path fill="#f6dddf" d="M83.87 251.6h83.87v83.87H83.87z"/><path fill="#eda4ab" d="M83.87 251.6h83.87v83.87H83.87z"/><use xlink:href="#C" x="-167.74" y="251.6" fill="#f2c3c8"/><use xlink:href="#N" fill="#eca1a8"/><path d="M251.6 251.6h83.867v83.867H251.6z" class="D"/><use xlink:href="#G" fill="#cbdefb"/><use xlink:href="#G" fill="#c3d9fb"/><use xlink:href="#B" x="125.8" y="251.6" fill="#237bfd"/><g fill="#d1e2fb"><use xlink:href="#E" x="-83.87" y="125.8"/><use xlink:href="#M" x="-83.87" y="125.8"/></g><use xlink:href="#G" y="41.93" fill="#3485fd"/><use xlink:href="#G" y="41.93" fill="#f2c3c8"/><use xlink:href="#B" x="125.8" y="293.53" fill="#e04e5c"/><use xlink:href="#F" x="-167.74" y="167.73" fill="#e56f7b"/><use xlink:href="#C" y="251.6" fill="#e25d6a"/><path d="M335.47 251.6a83.87 83.87 0 0 1 83.87 83.87h-83.87" fill="#96bffb"/><use xlink:href="#C" x="83.86" y="251.6" fill="#e6747f"/><path fill="#f6dee1" d="M419.33 251.6h83.87v83.87z"/><use xlink:href="#J" y="251.6" fill="#faf9f9"/><path d="M503.2 251.6a83.87 83.87 0 0 1 83.87 83.87L503.2 251.6a83.87 83.87 0 0 0 83.87 83.87" fill="#1070fd"/><path d="M587.066 251.6h83.867v83.867h-83.867z" class="D"/><path fill="#3e8bfc" d="M587.07 251.6H629v41.93h-41.93z"/><path d="M608.035 251.6H629l-41.93 41.93v-20.965l20.965-20.965zM629 272.565v20.965h-20.965L629 272.565z" fill="#d7e5fa"/><path fill="#6da6fc" d="M629 251.6h41.93v41.93H629z"/><path fill="#f6dde0" d="M629 251.6h41.93v41.93H629z"/><path fill="#efb1b7" d="M587.07 293.53H629v41.93h-41.93z"/><path fill="#de4554" d="M587.07 293.53H629l-41.93 41.93z"/><path fill="#f4f6fa" d="M629 293.53h41.93v41.93H629z"/><path d="M629 335.46a41.93 41.93 0 0 1 41.93-41.93L629 335.46a41.93 41.93 0 0 0 41.93-41.93" fill="#f3cfd3"/><path d="M0 335.466h83.867v83.867H0z" class="D"/><path fill="#65a2fc" d="M0 335.47h41.93v41.93H0z"/><path fill="#e15764" d="M0 335.47h41.93v41.93z"/><use xlink:href="#D" y="251.6" fill="#91bcfb"/><path d="M62.895 335.47H83.86L41.93 377.4v-20.965l20.965-20.965zm20.965 20.965V377.4H62.895l20.965-20.965z" fill="#f2c5ca"/><path fill="#75abfc" d="M0 377.4h41.93v41.93H0z"/><path fill="#217afd" d="M0 377.4h41.93v41.93H0z"/><use xlink:href="#D" y="293.53" fill="#4891fc"/><path fill="#69a4fc" d="M41.93 377.4h41.93v41.93z"/><path d="M83.867 335.466h83.867v83.867H83.867z" class="D"/><use xlink:href="#H" y="335.47" fill="#ea939c"/><use xlink:href="#I" x="-83.86" y="293.54" fill="#eca1a8"/><use xlink:href="#A" y="335.47" fill="#1271fd"/><use xlink:href="#K" x="125.8" y="251.6" fill="#2f82fd"/><use xlink:href="#H" y="377.4" fill="#e3616d"/><use xlink:href="#H" y="377.4" fill="#72aafc"/><use xlink:href="#A" y="377.4" fill="#e6eefa"/><use xlink:href="#A" y="377.4" fill="#5c9dfc"/><use xlink:href="#C" x="-167.74" y="335.47" class="F"/><use xlink:href="#N" y="83.87" fill="#f3cace"/><path d="M251.6 335.466h83.867v83.867H251.6z" class="D"/><use xlink:href="#G" y="83.87" fill="#1472fd"/><use xlink:href="#G" y="83.87" fill="#afcefb"/><use xlink:href="#B" x="125.8" y="335.47" fill="#f8edee"/><g fill="#eeaab1"><use xlink:href="#E" x="-83.87" y="209.67"/><path d="M335.46 356.435V377.4h-20.965l20.965-20.965z"/></g><use xlink:href="#G" y="125.8" class="F"/><path d="M251.6 377.4a41.93 41.93 0 0 0 41.93 41.93V377.4" fill="#eb979f"/><use xlink:href="#B" x="125.8" y="377.4" fill="#e3606c"/><g fill="#5196fc"><use xlink:href="#E" x="-83.87" y="251.6"/><use xlink:href="#M" x="-83.87" y="251.6"/></g><use xlink:href="#C" y="335.47" fill="#4c93fc"/><path d="M335.47 335.47a83.87 83.87 0 0 0 83.87 83.87v-83.87" fill="#0f6ffd"/><use xlink:href="#C" x="83.86" y="335.47" fill="#f7e5e6"/><use xlink:href="#C" x="83.86" y="335.47" fill="#4c93fc"/><use xlink:href="#J" y="335.47" fill="#e8838d"/><path fill="#cadefb" d="M587.07 335.47v83.87H503.2z"/><use xlink:href="#C" x="251.6" y="335.47" fill="#ea949c"/><path fill="#eca0a7" d="M587.07 335.47h83.87l-83.87 83.87z"/></g><defs><path id="A" d="M125.8 0h41.93v41.93H125.8z"/><path id="B" d="M167.73 0h41.93v41.93h-41.93z"/><path id="C" d="M335.47 0h83.87v83.87h-83.87z"/><path id="D" d="M41.93 83.87h41.93v41.93H41.93z"/><path id="E" d="M398.365 125.8h20.965l-41.93 41.93v-20.965l20.965-20.965z"/><path id="F" d="M461.27 167.73a41.93 41.93 0 0 1 41.93-41.93l-41.93 41.93a41.93 41.93 0 0 0 41.93-41.93"/><path id="G" d="M251.6 251.6h41.93v41.93H251.6z"/><path id="H" d="M83.87 0h41.93v41.93H83.87z"/><path id="I" d="M167.73 41.93a41.93 41.93 0 0 1 41.93 41.93l-41.93-41.93a41.93 41.93 0 0 0 41.93 41.93"/><path id="J" d="M503.2 0h83.87v83.87H503.2z"/><path id="K" d="M0 125.8a41.93 41.93 0 0 1 41.93-41.93v41.93"/><path id="L" d="M377.4 83.87h41.93v41.93H377.4z"/><path id="M" d="M419.33 146.765v20.965h-20.965l20.965-20.965z"/><path id="N" d="M167.73 335.47a83.87 83.87 0 0 0 83.87-83.87h-83.87"/></defs></svg>